<svg id="Layer_1" data-name="Layer 1" xmlns="http://www.w3.org/2000/svg" xmlns:xlink="http://www.w3.org/1999/xlink" viewBox="0 0 416.73 171.11"><defs><style>.cls-1{fill:none;clip-rule:evenodd;}.cls-2{clip-path:url(#clip-path);}.cls-3{fill:url(#linear-gradient);}.cls-4{clip-path:url(#clip-path-2);}.cls-5{fill:url(#linear-gradient-2);}.cls-6{clip-path:url(#clip-path-3);}.cls-7{fill:url(#linear-gradient-3);}.cls-8{clip-path:url(#clip-path-4);}.cls-9{fill:url(#linear-gradient-4);}.cls-10{clip-path:url(#clip-path-5);}.cls-11{fill:url(#linear-gradient-5);}.cls-12{clip-path:url(#clip-path-6);}.cls-13{fill:url(#linear-gradient-6);}.cls-14{clip-path:url(#clip-path-7);}.cls-15{fill:url(#linear-gradient-7);}</style><clipPath id="clip-path" transform="translate(-13.99 -9.96)"><path class="cls-1" d="M31.43,106.61a23.5,23.5,0,0,1,47,0v32.21a8.73,8.73,0,0,0,17.45,0V106.61A40.95,40.95,0,0,0,31.43,73.08V41.82a8.72,8.72,0,0,0-17.44,0v97a8.72,8.72,0,0,0,17.44,0Z"/></clipPath><linearGradient id="linear-gradient" y1="80.36" x2="81.87" y2="80.36" gradientUnits="userSpaceOnUse"><stop offset="0" stop-color="#794e9a"/><stop offset="1" stop-color="#9f4996"/></linearGradient><clipPath id="clip-path-2" transform="translate(-13.99 -9.96)"><path class="cls-1" d="M147.3,147.54a40.73,40.73,0,0,0,23.59-7.47,8.72,8.72,0,0,0,17.35-1.25V106.61a40.94,40.94,0,1,0-40.94,40.93m-23.49-40.93a23.5,23.5,0,1,1,23.49,23.47A23.49,23.49,0,0,1,123.81,106.61Z"/></clipPath><linearGradient id="linear-gradient-2" x1="92.38" y1="96.65" x2="174.25" y2="96.65" xlink:href="#linear-gradient"/><clipPath id="clip-path-3" transform="translate(-13.99 -9.96)"><path class="cls-1" d="M188.85,74.39a8.72,8.72,0,0,0,8.72,8.72h8.17v23.5a40.93,40.93,0,0,0,40.94,40.93,8.73,8.73,0,0,0,0-17.46,23.48,23.48,0,0,1-23.49-23.47V83.11h15.32a8.72,8.72,0,0,0,0-17.44H223.19V41.82a8.73,8.73,0,0,0-17.45,0V65.67h-8.17a8.72,8.72,0,0,0-8.72,8.72"/></clipPath><linearGradient id="linear-gradient-3" x1="174.86" y1="80.36" x2="241.41" y2="80.36" xlink:href="#linear-gradient"/><clipPath id="clip-path-4" transform="translate(-13.99 -9.96)"><path class="cls-1" d="M272.25,65.67a8.72,8.72,0,0,0-8.72,8.72v64.43a8.73,8.73,0,0,0,17.45,0V74.39a8.72,8.72,0,0,0-8.73-8.72"/></clipPath><linearGradient id="linear-gradient-4" x1="249.54" y1="96.65" x2="266.98" y2="96.65" xlink:href="#linear-gradient"/><clipPath id="clip-path-5" transform="translate(-13.99 -9.96)"><path class="cls-1" d="M263.53,41.82a8.73,8.73,0,1,0,8.72-8.72,8.73,8.73,0,0,0-8.72,8.72"/></clipPath><linearGradient id="linear-gradient-5" x1="249.54" y1="31.86" x2="266.98" y2="31.86" xlink:href="#linear-gradient"/><clipPath id="clip-path-6" transform="translate(-13.99 -9.96)"><path class="cls-1" d="M306.23,74.39h3.58v64.43a8.72,8.72,0,0,0,17.44,0V74.39H339A8.72,8.72,0,1,0,339,57H327.25V50.9a23.49,23.49,0,0,1,23.5-23.48,8.73,8.73,0,0,0,0-17.46A40.94,40.94,0,0,0,309.81,50.9V57H298.06a8.72,8.72,0,0,0,0,17.44Z"/></clipPath><linearGradient id="linear-gradient-6" x1="275.35" y1="68.79" x2="345.48" y2="68.79" xlink:href="#linear-gradient"/><clipPath id="clip-path-7" transform="translate(-13.99 -9.96)"><path class="cls-1" d="M389.78,147.54a40.74,40.74,0,0,0,23.5-7.41,23.49,23.49,0,0,1-23.5,23.48,8.73,8.73,0,0,0,0,17.46,40.94,40.94,0,0,0,40.94-40.94V74.39a8.72,8.72,0,0,0-17.44,0v32.22a23.5,23.5,0,0,1-47,0V74.39a8.72,8.72,0,0,0-17.44,0v32.22a40.92,40.92,0,0,0,40.93,40.93"/></clipPath><linearGradient id="linear-gradient-7" x1="334.85" y1="113.41" x2="416.73" y2="113.41" xlink:href="#linear-gradient"/></defs><g class="cls-2"><rect class="cls-3" y="23.14" width="81.87" height="114.45"/></g><g class="cls-4"><rect class="cls-5" x="92.38" y="55.71" width="81.87" height="81.87"/></g><g class="cls-6"><rect class="cls-7" x="174.86" y="23.14" width="66.55" height="114.45"/></g><g class="cls-8"><rect class="cls-9" x="249.54" y="55.71" width="17.44" height="81.87"/></g><g class="cls-10"><rect class="cls-11" x="249.54" y="23.14" width="17.44" height="17.44"/></g><g class="cls-12"><rect class="cls-13" x="275.35" width="70.13" height="137.58"/></g><g class="cls-14"><rect class="cls-15" x="334.85" y="55.71" width="81.87" height="115.4"/></g></svg>