<svg id="Layer_1" data-name="Layer 1" xmlns="http://www.w3.org/2000/svg" xmlns:xlink="http://www.w3.org/1999/xlink" viewBox="0 0 297.94 297.11"><defs><style>.cls-1{fill:none;clip-rule:evenodd;}.cls-2{clip-path:url(#clip-path);}.cls-3{fill:url(#linear-gradient);}</style><clipPath id="clip-path" transform="translate(2.89 0.49)"><path class="cls-1" d="M61.62,30.19C80.54,16.42,98.3,12.3,115.16,15.37c17.18,3.13,33.83,13.7,50.09,29.15,15.41,14.8,20.93,28.88,19.39,42.73-1.59,14.33-10.6,29-24,44.28-14.29,15.53-25.71,27.3-38.08,37.78s-25.83,19.77-44.19,30.34c-12,6.91-27.43,15.95-39.85,27.36-13.16,12.09-23,26.79-22.4,44.46l0,.46a29.38,29.38,0,0,0,1,5.31c2.69,9.05,9.11,14.23,17.15,16.86,7.11,2.33,15.46,2.52,23.31,1.69a100.09,100.09,0,0,0,17.3-3.48c29-8.62,60.45-27,89.67-49.42,33.56-25.69,64.29-56.7,84.9-84,9.83-13,28.1-39.57,37.25-64.47,6.27-17.06,8.31-33.62,1-45.62a21,21,0,0,0-6.18-6.67,34,34,0,0,0-7.05-3.47l-.44-.15C253.72,32.19,234.19,46.9,216.84,60c-.11.1-.23.18-.34.27a6.3,6.3,0,0,0,7.16,10.12l.64-.48c14.9-11.21,31.63-23.81,45.87-19.62a23.14,23.14,0,0,1,4.38,2.09,8.94,8.94,0,0,1,2.59,2.88c5,8.19,3,21.07-2.07,34.89-8.61,23.43-26.08,48.78-35.5,61.26-20,26.53-49.88,56.65-82.52,81.65-28.14,21.55-58.23,39.23-85.63,47.38a87.81,87.81,0,0,1-15.12,3c-6.33.67-12.9.57-18.16-1.15-4.33-1.42-7.75-4.06-9.09-8.56a17.82,17.82,0,0,1-.59-3c-.3-13.21,7.71-24.8,18.42-34.64C58.42,225.55,73.07,217,84.5,210.38c19.14-11,33.13-20.68,46-31.6s24.64-23,39.29-38.94l.1-.1c15-17.08,25.14-33.9,27.06-51.13,2-17.71-4.61-35.25-23.17-53.06-17.94-17-36.64-28.77-56.47-32.37-20.15-3.67-41.07,1-63,17-20,14.55-37.74,34.19-47.15,56.67C-.93,96.2-2.89,117.61,5.06,139.67,19.87,180.76,44.47,187,70.82,177.51c30.61-11,62.77-44.76,82.89-66.13a6.22,6.22,0,0,0-8.77-8.78c-19.34,20.55-50.38,53.18-78.3,63.25-19.71,7.1-38.28,1.93-49.92-30.36-6.79-18.83-5.07-37.2,1.92-53.88,8.49-20.26,24.68-38.1,43-51.42"/></clipPath><linearGradient id="linear-gradient" x1="2.16" y1="147.96" x2="286.22" y2="149.12" gradientUnits="userSpaceOnUse"><stop offset="0" stop-color="#f8994a"/><stop offset="0.21" stop-color="#ec6b8f"/><stop offset="0.46" stop-color="#b6509e"/><stop offset="0.71" stop-color="#9252a0"/><stop offset="1" stop-color="#7556a4"/></linearGradient></defs><g class="cls-2"><rect class="cls-3" width="297.94" height="297.11"/></g></svg>